<?xml version="1.0" standalone="no"?>
<!DOCTYPE svg PUBLIC "-//W3C//DTD SVG 20010904//EN"
 "http://www.w3.org/TR/2001/REC-SVG-20010904/DTD/svg10.dtd">
<svg version="1.0" xmlns="http://www.w3.org/2000/svg"
 width="200.000000pt" height="200.000000pt" viewBox="0 0 200.000000 200.000000"
 preserveAspectRatio="xMidYMid meet">
<metadata>
Created by potrace 1.11, written by Peter Selinger 2001-2013
</metadata>
<g transform="translate(0.000000,200.000000) scale(0.100000,-0.100000)"
fill="#000000" stroke="none">
<path d="M875 1893 c-11 -2 -56 -13 -99 -24 -319 -80 -572 -338 -653 -666 -25
-103 -22 -323 6 -428 87 -325 332 -565 661 -649 82 -21 113 -24 230 -22 111 3
151 8 223 30 250 75 447 237 560 461 33 66 60 140 73 196 3 13 8 38 12 54 3
17 6 93 6 170 -1 121 -5 152 -28 230 -100 331 -362 571 -701 641 -37 7 -262
13 -290 7z"/>
</g>
</svg>
